<mxfile host="app.diagrams.net" agent="Mozilla/5.0 (Windows NT 10.0; Win64; x64) AppleWebKit/537.36 (KHTML, like Gecko) Chrome/127.0.0.0 Safari/537.36" version="24.7.5">
  <diagram id="C5RBs43oDa-KdzZeNtuy" name="Page-1">
    <mxGraphModel dx="3000" dy="1491" grid="1" gridSize="10" guides="1" tooltips="1" connect="1" arrows="1" fold="1" page="1" pageScale="1" pageWidth="827" pageHeight="1169" math="0" shadow="0">
      <root>
        <mxCell id="WIyWlLk6GJQsqaUBKTNV-0" />
        <mxCell id="WIyWlLk6GJQsqaUBKTNV-1" parent="WIyWlLk6GJQsqaUBKTNV-0" />
        <mxCell id="WIyWlLk6GJQsqaUBKTNV-2" value="" style="rounded=0;html=1;jettySize=auto;orthogonalLoop=1;fontSize=11;endArrow=block;endFill=0;endSize=8;strokeWidth=1;shadow=0;labelBackgroundColor=none;edgeStyle=orthogonalEdgeStyle;strokeColor=#028090;fontColor=default;" parent="WIyWlLk6GJQsqaUBKTNV-1" source="WIyWlLk6GJQsqaUBKTNV-3" target="PnFAxr-nrefALhlaqzSz-0" edge="1">
          <mxGeometry relative="1" as="geometry" />
        </mxCell>
        <mxCell id="WIyWlLk6GJQsqaUBKTNV-3" value="Chat App&amp;nbsp;" style="rounded=1;whiteSpace=wrap;html=1;fontSize=12;glass=0;strokeWidth=1;shadow=0;labelBackgroundColor=none;fillColor=#F45B69;strokeColor=#028090;fontColor=#E4FDE1;" parent="WIyWlLk6GJQsqaUBKTNV-1" vertex="1">
          <mxGeometry x="160" y="30" width="120" height="40" as="geometry" />
        </mxCell>
        <mxCell id="WIyWlLk6GJQsqaUBKTNV-4" value="Already an user? Login" style="rounded=0;html=1;jettySize=auto;orthogonalLoop=1;fontSize=11;endArrow=block;endFill=0;endSize=8;strokeWidth=1;shadow=0;labelBackgroundColor=none;edgeStyle=orthogonalEdgeStyle;strokeColor=#028090;fontColor=default;" parent="WIyWlLk6GJQsqaUBKTNV-1" source="WIyWlLk6GJQsqaUBKTNV-6" target="WIyWlLk6GJQsqaUBKTNV-10" edge="1">
          <mxGeometry y="80" relative="1" as="geometry">
            <mxPoint as="offset" />
          </mxGeometry>
        </mxCell>
        <mxCell id="WIyWlLk6GJQsqaUBKTNV-5" value="NOt an account? Rgister" style="edgeStyle=orthogonalEdgeStyle;rounded=0;html=1;jettySize=auto;orthogonalLoop=1;fontSize=11;endArrow=block;endFill=0;endSize=8;strokeWidth=1;shadow=0;labelBackgroundColor=none;strokeColor=#028090;fontColor=default;" parent="WIyWlLk6GJQsqaUBKTNV-1" source="WIyWlLk6GJQsqaUBKTNV-6" target="WIyWlLk6GJQsqaUBKTNV-7" edge="1">
          <mxGeometry x="-0.0526" y="20" relative="1" as="geometry">
            <mxPoint as="offset" />
          </mxGeometry>
        </mxCell>
        <mxCell id="WIyWlLk6GJQsqaUBKTNV-6" value="Login/Register" style="rhombus;whiteSpace=wrap;html=1;shadow=0;fontFamily=Helvetica;fontSize=12;align=center;strokeWidth=1;spacing=6;spacingTop=-4;labelBackgroundColor=none;fillColor=#F45B69;strokeColor=#028090;fontColor=#E4FDE1;" parent="WIyWlLk6GJQsqaUBKTNV-1" vertex="1">
          <mxGeometry x="170" y="300" width="100" height="80" as="geometry" />
        </mxCell>
        <mxCell id="PnFAxr-nrefALhlaqzSz-6" style="edgeStyle=orthogonalEdgeStyle;rounded=0;orthogonalLoop=1;jettySize=auto;html=1;entryX=1;entryY=0.25;entryDx=0;entryDy=0;labelBackgroundColor=none;strokeColor=#028090;fontColor=default;" parent="WIyWlLk6GJQsqaUBKTNV-1" source="WIyWlLk6GJQsqaUBKTNV-7" target="WIyWlLk6GJQsqaUBKTNV-11" edge="1">
          <mxGeometry relative="1" as="geometry">
            <mxPoint x="520" y="720" as="targetPoint" />
            <Array as="points">
              <mxPoint x="520" y="580" />
              <mxPoint x="430" y="580" />
              <mxPoint x="430" y="690" />
              <mxPoint x="280" y="690" />
              <mxPoint x="280" y="680" />
            </Array>
          </mxGeometry>
        </mxCell>
        <mxCell id="WIyWlLk6GJQsqaUBKTNV-7" value="Register" style="rounded=1;whiteSpace=wrap;html=1;fontSize=12;glass=0;strokeWidth=1;shadow=0;labelBackgroundColor=none;fillColor=#F45B69;strokeColor=#028090;fontColor=#E4FDE1;" parent="WIyWlLk6GJQsqaUBKTNV-1" vertex="1">
          <mxGeometry x="460" y="320" width="120" height="40" as="geometry" />
        </mxCell>
        <mxCell id="WIyWlLk6GJQsqaUBKTNV-8" value="No" style="rounded=0;html=1;jettySize=auto;orthogonalLoop=1;fontSize=11;endArrow=block;endFill=0;endSize=8;strokeWidth=1;shadow=0;labelBackgroundColor=none;edgeStyle=orthogonalEdgeStyle;strokeColor=#028090;fontColor=default;" parent="WIyWlLk6GJQsqaUBKTNV-1" source="WIyWlLk6GJQsqaUBKTNV-10" target="WIyWlLk6GJQsqaUBKTNV-11" edge="1">
          <mxGeometry x="0.3333" y="20" relative="1" as="geometry">
            <mxPoint as="offset" />
            <Array as="points">
              <mxPoint x="220" y="640" />
              <mxPoint x="220" y="640" />
            </Array>
          </mxGeometry>
        </mxCell>
        <mxCell id="WIyWlLk6GJQsqaUBKTNV-10" value="Login" style="rhombus;whiteSpace=wrap;html=1;shadow=0;fontFamily=Helvetica;fontSize=12;align=center;strokeWidth=1;spacing=6;spacingTop=-4;labelBackgroundColor=none;fillColor=#F45B69;strokeColor=#028090;fontColor=#E4FDE1;" parent="WIyWlLk6GJQsqaUBKTNV-1" vertex="1">
          <mxGeometry x="170" y="430" width="100" height="105" as="geometry" />
        </mxCell>
        <mxCell id="PnFAxr-nrefALhlaqzSz-8" style="edgeStyle=orthogonalEdgeStyle;rounded=0;orthogonalLoop=1;jettySize=auto;html=1;labelBackgroundColor=none;strokeColor=#028090;fontColor=default;" parent="WIyWlLk6GJQsqaUBKTNV-1" source="WIyWlLk6GJQsqaUBKTNV-11" edge="1">
          <mxGeometry relative="1" as="geometry">
            <mxPoint x="230" y="840" as="targetPoint" />
          </mxGeometry>
        </mxCell>
        <mxCell id="PnFAxr-nrefALhlaqzSz-30" style="edgeStyle=orthogonalEdgeStyle;rounded=0;orthogonalLoop=1;jettySize=auto;html=1;labelBackgroundColor=none;strokeColor=#028090;fontColor=default;" parent="WIyWlLk6GJQsqaUBKTNV-1" source="WIyWlLk6GJQsqaUBKTNV-11" target="PnFAxr-nrefALhlaqzSz-29" edge="1">
          <mxGeometry relative="1" as="geometry">
            <Array as="points">
              <mxPoint x="260" y="800" />
            </Array>
          </mxGeometry>
        </mxCell>
        <mxCell id="WIyWlLk6GJQsqaUBKTNV-11" value="Chat page" style="rounded=1;whiteSpace=wrap;html=1;fontSize=12;glass=0;strokeWidth=1;shadow=0;labelBackgroundColor=none;fillColor=#F45B69;strokeColor=#028090;fontColor=#E4FDE1;" parent="WIyWlLk6GJQsqaUBKTNV-1" vertex="1">
          <mxGeometry x="160" y="670" width="140" height="40" as="geometry" />
        </mxCell>
        <mxCell id="PnFAxr-nrefALhlaqzSz-3" style="edgeStyle=orthogonalEdgeStyle;rounded=0;orthogonalLoop=1;jettySize=auto;html=1;entryX=0.5;entryY=0;entryDx=0;entryDy=0;labelBackgroundColor=none;strokeColor=#028090;fontColor=default;" parent="WIyWlLk6GJQsqaUBKTNV-1" source="PnFAxr-nrefALhlaqzSz-0" target="WIyWlLk6GJQsqaUBKTNV-6" edge="1">
          <mxGeometry relative="1" as="geometry" />
        </mxCell>
        <mxCell id="PnFAxr-nrefALhlaqzSz-0" value="Welcome Page" style="rounded=1;whiteSpace=wrap;html=1;fontSize=12;glass=0;strokeWidth=1;shadow=0;labelBackgroundColor=none;fillColor=#F45B69;strokeColor=#028090;fontColor=#E4FDE1;" parent="WIyWlLk6GJQsqaUBKTNV-1" vertex="1">
          <mxGeometry x="160" y="180" width="120" height="40" as="geometry" />
        </mxCell>
        <mxCell id="PnFAxr-nrefALhlaqzSz-14" style="edgeStyle=orthogonalEdgeStyle;rounded=0;orthogonalLoop=1;jettySize=auto;html=1;labelBackgroundColor=none;strokeColor=#028090;fontColor=default;" parent="WIyWlLk6GJQsqaUBKTNV-1" source="PnFAxr-nrefALhlaqzSz-7" edge="1">
          <mxGeometry relative="1" as="geometry">
            <mxPoint x="110" y="1130" as="targetPoint" />
          </mxGeometry>
        </mxCell>
        <mxCell id="PnFAxr-nrefALhlaqzSz-15" style="edgeStyle=orthogonalEdgeStyle;rounded=0;orthogonalLoop=1;jettySize=auto;html=1;labelBackgroundColor=none;strokeColor=#028090;fontColor=default;" parent="WIyWlLk6GJQsqaUBKTNV-1" source="PnFAxr-nrefALhlaqzSz-7" edge="1">
          <mxGeometry relative="1" as="geometry">
            <mxPoint x="290" y="1130" as="targetPoint" />
          </mxGeometry>
        </mxCell>
        <mxCell id="PnFAxr-nrefALhlaqzSz-16" style="edgeStyle=orthogonalEdgeStyle;rounded=0;orthogonalLoop=1;jettySize=auto;html=1;labelBackgroundColor=none;strokeColor=#028090;fontColor=default;" parent="WIyWlLk6GJQsqaUBKTNV-1" edge="1">
          <mxGeometry relative="1" as="geometry">
            <mxPoint x="480" y="1130" as="targetPoint" />
            <mxPoint x="230" y="980" as="sourcePoint" />
            <Array as="points">
              <mxPoint x="480" y="980" />
            </Array>
          </mxGeometry>
        </mxCell>
        <mxCell id="PnFAxr-nrefALhlaqzSz-26" style="edgeStyle=orthogonalEdgeStyle;rounded=0;orthogonalLoop=1;jettySize=auto;html=1;labelBackgroundColor=none;strokeColor=#028090;fontColor=default;" parent="WIyWlLk6GJQsqaUBKTNV-1" edge="1">
          <mxGeometry relative="1" as="geometry">
            <mxPoint x="650" y="1130" as="targetPoint" />
            <mxPoint x="230" y="960" as="sourcePoint" />
            <Array as="points">
              <mxPoint x="651" y="960" />
            </Array>
          </mxGeometry>
        </mxCell>
        <mxCell id="PnFAxr-nrefALhlaqzSz-7" value="Search &amp;amp; Add frfriends&amp;nbsp;" style="rounded=0;whiteSpace=wrap;html=1;labelBackgroundColor=none;fillColor=#F45B69;strokeColor=#028090;fontColor=#E4FDE1;" parent="WIyWlLk6GJQsqaUBKTNV-1" vertex="1">
          <mxGeometry x="170" y="930" width="120" height="60" as="geometry" />
        </mxCell>
        <mxCell id="PnFAxr-nrefALhlaqzSz-23" value="Chat indindividually&amp;nbsp;" style="rounded=0;whiteSpace=wrap;html=1;labelBackgroundColor=none;fillColor=#F45B69;strokeColor=#028090;fontColor=#E4FDE1;" parent="WIyWlLk6GJQsqaUBKTNV-1" vertex="1">
          <mxGeometry x="50" y="1130" width="120" height="60" as="geometry" />
        </mxCell>
        <mxCell id="PnFAxr-nrefALhlaqzSz-24" value="Create a group" style="rounded=0;whiteSpace=wrap;html=1;labelBackgroundColor=none;fillColor=#F45B69;strokeColor=#028090;fontColor=#E4FDE1;" parent="WIyWlLk6GJQsqaUBKTNV-1" vertex="1">
          <mxGeometry x="230" y="1130" width="120" height="60" as="geometry" />
        </mxCell>
        <mxCell id="PnFAxr-nrefALhlaqzSz-25" value="View your profile" style="rounded=0;whiteSpace=wrap;html=1;labelBackgroundColor=none;fillColor=#F45B69;strokeColor=#028090;fontColor=#E4FDE1;" parent="WIyWlLk6GJQsqaUBKTNV-1" vertex="1">
          <mxGeometry x="424" y="1130" width="120" height="60" as="geometry" />
        </mxCell>
        <mxCell id="PnFAxr-nrefALhlaqzSz-27" value="Logout" style="rounded=0;whiteSpace=wrap;html=1;labelBackgroundColor=none;fillColor=#F45B69;strokeColor=#028090;fontColor=#E4FDE1;" parent="WIyWlLk6GJQsqaUBKTNV-1" vertex="1">
          <mxGeometry x="590" y="1130" width="120" height="60" as="geometry" />
        </mxCell>
        <mxCell id="PnFAxr-nrefALhlaqzSz-31" style="edgeStyle=orthogonalEdgeStyle;rounded=0;orthogonalLoop=1;jettySize=auto;html=1;labelBackgroundColor=none;strokeColor=#028090;fontColor=default;" parent="WIyWlLk6GJQsqaUBKTNV-1" source="PnFAxr-nrefALhlaqzSz-29" edge="1">
          <mxGeometry relative="1" as="geometry">
            <mxPoint x="650" y="760" as="targetPoint" />
          </mxGeometry>
        </mxCell>
        <mxCell id="PnFAxr-nrefALhlaqzSz-32" style="edgeStyle=orthogonalEdgeStyle;rounded=0;orthogonalLoop=1;jettySize=auto;html=1;labelBackgroundColor=none;strokeColor=#028090;fontColor=default;" parent="WIyWlLk6GJQsqaUBKTNV-1" source="PnFAxr-nrefALhlaqzSz-29" edge="1">
          <mxGeometry relative="1" as="geometry">
            <mxPoint x="650" y="830" as="targetPoint" />
          </mxGeometry>
        </mxCell>
        <mxCell id="PnFAxr-nrefALhlaqzSz-29" value="Check Notifications&amp;nbsp;" style="rounded=0;whiteSpace=wrap;html=1;labelBackgroundColor=none;fillColor=#F45B69;strokeColor=#028090;fontColor=#E4FDE1;" parent="WIyWlLk6GJQsqaUBKTNV-1" vertex="1">
          <mxGeometry x="414" y="760" width="106" height="70" as="geometry" />
        </mxCell>
        <mxCell id="PnFAxr-nrefALhlaqzSz-33" value="Reject friends&lt;span style=&quot;background-color: initial;&quot;&gt;&amp;nbsp;&lt;/span&gt;" style="rounded=0;whiteSpace=wrap;html=1;labelBackgroundColor=none;fillColor=#F45B69;strokeColor=#028090;fontColor=#E4FDE1;" parent="WIyWlLk6GJQsqaUBKTNV-1" vertex="1">
          <mxGeometry x="650" y="740" width="90" height="40" as="geometry" />
        </mxCell>
        <mxCell id="PnFAxr-nrefALhlaqzSz-37" style="edgeStyle=orthogonalEdgeStyle;rounded=0;orthogonalLoop=1;jettySize=auto;html=1;entryX=1;entryY=0.75;entryDx=0;entryDy=0;labelBackgroundColor=none;strokeColor=#028090;fontColor=default;" parent="WIyWlLk6GJQsqaUBKTNV-1" source="PnFAxr-nrefALhlaqzSz-34" target="PnFAxr-nrefALhlaqzSz-36" edge="1">
          <mxGeometry relative="1" as="geometry">
            <Array as="points">
              <mxPoint x="695" y="870" />
            </Array>
          </mxGeometry>
        </mxCell>
        <mxCell id="PnFAxr-nrefALhlaqzSz-34" value="accept friends" style="rounded=0;whiteSpace=wrap;html=1;labelBackgroundColor=none;fillColor=#F45B69;strokeColor=#028090;fontColor=#E4FDE1;" parent="WIyWlLk6GJQsqaUBKTNV-1" vertex="1">
          <mxGeometry x="650" y="810" width="90" height="40" as="geometry" />
        </mxCell>
        <mxCell id="PnFAxr-nrefALhlaqzSz-38" style="edgeStyle=orthogonalEdgeStyle;rounded=0;orthogonalLoop=1;jettySize=auto;html=1;entryX=0.5;entryY=0;entryDx=0;entryDy=0;labelBackgroundColor=none;strokeColor=#028090;fontColor=default;" parent="WIyWlLk6GJQsqaUBKTNV-1" source="PnFAxr-nrefALhlaqzSz-36" target="PnFAxr-nrefALhlaqzSz-7" edge="1">
          <mxGeometry relative="1" as="geometry" />
        </mxCell>
        <mxCell id="PnFAxr-nrefALhlaqzSz-36" value="Use chat app" style="rounded=0;whiteSpace=wrap;html=1;labelBackgroundColor=none;fillColor=#F45B69;strokeColor=#028090;fontColor=#E4FDE1;" parent="WIyWlLk6GJQsqaUBKTNV-1" vertex="1">
          <mxGeometry x="177" y="840" width="106" height="40" as="geometry" />
        </mxCell>
      </root>
    </mxGraphModel>
  </diagram>
</mxfile>
